<svg width="475" height="113" viewBox="0 0 475 113" fill="none" xmlns="http://www.w3.org/2000/svg">
<path d="M67.9694 54.7094L78.9994 54.1394C79.8894 54.0894 81.2294 53.4794 81.2194 52.4494L81.0294 36.9194L67.7294 36.7094C67.4994 33.7294 67.5094 31.3194 67.8094 28.2194L83.7794 27.6894C84.5794 27.6594 85.6994 26.9594 85.6994 26.1794L85.7694 11.4894L91.1294 16.9594L91.1894 39.3794L91.5394 79.1894C93.5094 79.7394 95.2894 79.7294 97.1994 79.5394L109.199 78.3194C109.469 70.4294 108.809 63.7194 109.649 55.4894C113.269 63.2994 115.769 70.4194 118.829 78.0994L137.899 76.8894C137.359 75.0894 136.979 74.0394 136.399 72.7094L126.429 50.0094C127.119 48.7894 127.999 47.6594 128.869 46.8794C137.279 39.3194 138.379 28.5394 132.469 18.4394C137.009 22.6794 140.089 27.1994 144.239 31.6894L143.889 76.4294L162.139 75.3994L162.999 51.1594L175.959 50.2494L176.519 34.8194L163.519 34.4094C163.119 31.9394 163.199 29.5294 163.679 26.6494L179.019 26.2894C180.079 26.2594 180.999 25.5894 181.039 24.5794L181.589 10.8594L186.939 16.0894L185.389 74.3094L182.799 74.9894C182.799 79.0294 182.609 82.6594 182.499 86.5494L182.199 96.8494C182.179 97.6594 181.219 99.4094 180.409 99.4294L170.469 99.7394C168.099 99.8094 164.989 100.599 162.789 99.8294L153.519 88.9294C154.529 93.1994 155.859 95.8094 157.259 99.9594C155.559 100.409 153.779 100.599 151.779 100.739L141.789 101.439C139.069 101.629 137.899 101.729 136.189 99.4894C134.059 96.6894 131.839 94.1894 129.459 91.4694C127.849 96.7494 131.139 101.939 125.749 102.309L116.619 102.939C114.969 103.049 111.959 103.599 110.469 103.109L106.169 97.8494L105.109 104.009L100.189 104.459L92.2294 105.139L81.2794 106.259L69.7994 107.729C68.6294 106.749 67.5994 105.549 66.5994 104.329L50.1094 84.1794L85.6794 80.5194C85.8094 74.4794 85.8094 69.4494 85.5994 63.4294L69.7194 64.1894C68.9494 64.2294 67.7494 63.0694 67.7694 62.2994L67.9894 54.7294L67.9694 54.7094Z" fill="white"/>
<path d="M19.3 112.874L0 89.3644L8.1 88.2644C11.08 87.8644 13.51 87.4244 16.5 86.6344L16.01 62.7144C15.99 61.7944 16.13 60.3944 16.4 59.7444C17.42 57.2144 29.34 62.1244 38.61 47.9844C44.24 39.4044 43.67 29.5144 38.74 19.9844C42.28 23.5244 45.01 26.7244 48.2 30.4444L49.2 80.0344C45.22 81.9844 41.13 82.6044 36.38 82.7344L36.66 92.3044C36.84 98.4744 37.06 104.164 36.93 110.494C30.7 111.644 25.37 112.284 19.3 112.864V112.874Z" fill="white"/>
<path d="M22.6891 40.2838C20.6991 42.2738 17.8091 42.1938 15.4291 41.5738C15.1591 36.6638 15.0091 32.0438 15.1491 27.2738C17.1891 26.0938 20.3491 26.0238 22.2991 27.3738C26.9191 30.5738 25.2291 37.7438 22.6891 40.2738V40.2838Z" fill="white"/>
<path d="M117.939 26.5377C120.859 30.7677 117.579 36.6177 115.579 37.5177C113.689 38.3677 111.179 38.3777 109.459 37.3677L109.149 26.6277C109.129 26.1077 109.439 24.9877 109.839 24.8077C111.499 24.0677 116.129 23.9077 117.939 26.5277V26.5377Z" fill="white"/>
<path d="M430.62 63.2764L425.44 68.0064C424.17 69.1664 422.29 70.3864 420.74 69.4364C420.53 67.0964 420.22 64.1464 420.67 61.8464C421.83 55.9564 427.91 45.9964 433.4 45.9064C435.95 45.8564 438.84 55.7664 430.62 63.2764Z" fill="white"/>
<path d="M455.219 24.2188C453.389 31.6887 449.839 37.7587 445.609 43.7987C445.539 40.2787 447.299 37.5588 448.629 34.5788C450.239 30.8288 452.129 27.2587 455.219 24.2188Z" fill="white"/>
<path d="M399.811 44.3271C398.071 47.3371 395.651 49.9671 391.301 50.5871C391.421 49.6671 396.871 42.2471 399.811 44.3271Z" fill="white"/>
<path d="M473.32 51.0369C471.52 47.7369 468.021 45.4069 463.391 44.6469C468.011 34.8869 476.73 19.7669 469.84 9.77693C466.88 5.47693 461.43 3.92693 456.22 4.78693C444.6 6.69693 437.77 21.0569 433.02 30.4669C426.81 31.0669 421.11 34.0469 416.89 38.3069C416.65 38.5469 415.78 39.2669 415.61 39.0369C412.17 34.4469 413.17 32.4269 404.64 29.0769C405.34 20.0669 401.42 15.9969 393.13 13.6069C392.79 9.34693 391.16 5.20693 388 2.89693C384.6 0.426928 380.29 -0.933072 376.25 0.736928C369.88 3.36693 365.16 7.85693 361.28 13.6069L341.32 13.8769C335.49 13.9469 331.1 17.9869 329.38 23.3469L321.26 14.1169L318.94 30.8569L306.53 30.6169L301.05 76.6569L282.84 75.8369C282.23 74.7169 281.58 73.5069 280.89 72.6569L272.97 62.9569C269.45 58.6469 266.95 57.8469 269.15 54.5169C272.95 48.7469 277.57 48.4269 284.72 50.6669L287.2 29.1969C282.99 28.0069 277.25 28.6169 274.95 27.7669C274.57 27.6169 274.36 26.5069 274.41 26.0769L275.39 16.8969C273.83 15.1969 272.13 13.5669 270.15 11.8469L268.36 25.6069C268.29 26.0969 267.79 27.2369 267.33 27.3469C266.96 27.4369 266.01 27.3269 265.66 27.1769C259.6 24.6669 253.12 27.1069 250.2 33.0269C246.66 40.1969 245.7 54.5069 253.88 57.5969C261.28 60.3869 267.53 53.6169 266.99 58.2469L265.24 73.0569C257.59 77.2569 248.7 77.0369 240.99 72.9969C224.29 64.2469 224.76 35.1769 234.06 21.3769L224.78 10.8169L223.77 25.8469L206.28 26.1369C205.68 28.9869 205.6 30.9069 205.88 33.8969L216.82 34.1769C217.33 34.1869 218.52 34.5169 218.74 34.9469C218.97 35.3869 219.17 36.5369 219.13 37.0469L218.13 49.6469L205.63 50.0169C205.03 53.0069 204.85 55.3269 205.27 58.4369L222.47 58.6169L221.79 72.8269C221.75 73.6269 220.26 74.3869 219.44 74.3969C208.07 74.4869 197.3 74.4969 185.73 75.4269L204.77 98.6069L226.59 98.2469L240.63 97.8669C241.97 97.3269 241.81 94.4469 241.92 93.1769L242.62 84.6869C242.79 82.5969 242.43 80.9869 242.2 78.2669C251.4 87.5569 255.41 99.4669 269.98 99.6969C275.14 99.7769 280.5 100.087 284.95 96.6669L287.1 81.7369L301.68 99.2769C303.28 100.157 306.36 100.187 308.24 100.247L319.97 100.677C320.73 99.0969 321.28 97.2769 321.47 95.5569L323.91 73.9469L326.16 53.9569C331.02 53.0169 334.8 55.4269 338.62 53.8869C339.49 52.4869 339.7 50.1269 339.87 48.4769L341.02 37.8969L349.4 37.9669C346.88 47.9169 344.52 58.7069 345.86 68.1069C347.16 77.2669 353.74 84.4369 363.16 85.6969C360.06 90.2969 360.09 95.6169 363.27 99.9869C366.09 103.857 371.12 105.537 376.23 104.257C378.65 103.657 380.55 101.667 382.76 100.677C395.1 95.1369 416.02 92.5969 427.92 99.1469C431.92 101.337 436.56 100.897 440.23 98.2569C443.67 95.7769 445.66 91.8269 445.31 87.2169C456.27 85.8469 467.47 71.9769 472.96 63.4869C475.44 59.6369 475.49 55.0269 473.32 51.0369ZM435.88 89.5669C435.46 90.3169 433.89 91.6069 432.97 91.3369C431.25 90.8369 429.71 89.6869 427.96 89.0669C413 83.7969 392.26 85.6669 378.19 92.7369C378.37 92.6569 372.96 97.7069 370.65 94.2869C368.19 90.6369 374.86 87.3269 377.78 86.0269C388.09 81.4769 403.59 78.8069 414.66 80.2769C418.34 80.7569 439.5 83.0869 435.88 89.5669ZM465.201 58.6069C460.981 65.2169 455.89 71.1069 449.62 75.7769C445.86 78.5669 440.28 78.3869 437.57 74.5969C436.32 72.8469 435.92 70.9769 435.04 68.3869C430.7 70.2169 427.34 76.3369 421.07 76.2269C416.25 76.1369 413.51 71.8669 413.61 66.6969L404.03 72.9169C398.51 76.4969 391.45 78.2569 385.43 74.9369C382.52 73.3369 381.51 70.0369 379.95 66.7369C376.48 70.3469 373.21 73.8569 368.67 75.6369C363.17 77.8069 357.57 75.2169 355.75 69.6369C354.27 65.1369 354.61 60.6869 355.09 55.7969C355.9 47.4169 358.85 38.9969 361.84 31.3269C362.02 30.8669 362.09 29.9069 361.98 29.5969C361.83 29.1869 360.8 28.6869 360.35 28.6869L341.31 28.6269C339.6 28.6169 337.85 26.1369 338.84 24.6269C339.92 22.9769 342.42 22.3169 344.41 22.3169L366.04 22.3369L371.78 15.0769C373.95 12.3269 376.71 10.1769 380.24 8.98693C381.39 8.60693 382.85 10.5169 383.26 11.4469C385.53 16.4869 378 14.9469 374.52 22.2169L381.21 22.7269L393.26 23.0469C394.29 23.0769 395.61 24.9269 395.55 25.8069C395.48 26.8369 394.1 28.4669 392.86 28.5169L383.89 28.8869C378.14 29.1169 377.31 28.3669 371.18 28.8269C366.35 36.9569 364.09 45.7569 362.65 54.9969C362.08 58.6169 360.84 68.3869 364.76 69.9669C365.51 70.2669 367.11 69.9469 368.06 69.4669C373.82 66.5569 377.64 61.4769 380.63 55.7769C384.32 48.7369 388.25 40.1669 397.04 37.6669C400.61 36.6569 404.58 37.8169 406.23 41.3769C407.74 44.6469 405.76 48.0769 403.45 50.4269C399.11 54.8469 393.82 57.2869 387.67 58.0569C386.23 61.0169 385.87 65.2769 387.56 67.9769C389.91 71.7369 394.29 70.9669 397.64 69.2669C400.84 67.6369 403.85 66.2569 406.49 63.6469C409.68 60.5169 414.06 57.7469 416.44 54.0169C419.86 48.6469 422.7 43.4569 428.86 40.7869C429.24 40.6169 429.63 40.4769 430.02 40.3469C430.44 40.2169 430.86 40.1069 431.3 40.0169C432.85 39.7069 434.48 39.7169 436.21 40.0369C436.65 40.1169 437.1 40.2169 437.56 40.3369C438.01 40.4569 438.48 40.6069 438.95 40.7669C441.93 33.8169 444.5 26.8969 448.93 20.9769C451.72 17.2369 456.49 11.6969 461.06 13.9869C466.55 16.7269 460.8 28.5869 458.67 33.1969C454.22 42.8569 448.55 51.2669 442.3 59.5569C441.25 60.9469 441.3 62.8769 441.53 64.5069L442.24 69.5769C442.31 70.0669 443.04 70.9769 443.42 71.1669C445.83 72.3969 451.641 66.0369 453.201 64.1069L460.41 55.2169C461.39 54.0069 463.18 53.6369 464.41 54.4169C465.51 55.1169 466.031 57.2969 465.201 58.6069Z" fill="white"/>
</svg>
