<svg width="1565" height="287" viewBox="0 0 1565 287" fill="none" xmlns="http://www.w3.org/2000/svg">
<g clip-path="url(#clip0_1732_1380)">
<path d="M790.631 91.9802H767.631C765.011 94.1202 766.431 97.9602 766.121 100.98C745.411 84.1002 712.591 84.4002 692.121 101.47C652.871 134.19 663.191 218.31 718.731 226.88C729.331 228.51 744.341 226.83 754.131 222.48C755.591 221.83 761.451 217.2 762.131 217.98V238.48C762.131 239.15 759.281 244.87 758.571 245.92C747.141 262.61 715.791 262.51 705.651 244.1L679.131 256.99C698.101 296.39 773.581 296.11 788.621 253.97C790.181 249.58 792.131 239.9 792.131 235.48V93.4802L790.631 91.9802ZM766.011 167.36C763.641 191.07 749.641 204.76 725.081 200.53C691.311 194.72 689.381 120.52 727.891 115.24C760.771 110.73 768.681 140.65 766.011 167.36Z" fill="white"/>
<path d="M1255.75 89.1025C1235.94 91.1825 1216.78 106.202 1213.17 125.942L1238.67 133.752C1243.16 124.182 1250.59 117.172 1261.62 115.972C1277.12 114.292 1294.37 117.672 1295.14 136.492C1295.24 138.822 1294.94 137.612 1293.62 137.962C1269.26 144.302 1225.18 141.472 1211.95 168.302C1201.29 189.932 1211.35 218.782 1235.35 225.262C1258.35 231.472 1282.74 225.442 1298.13 206.982V223.982H1322.63L1324.13 222.482V134.482C1324.13 95.9825 1287.77 85.7525 1255.75 89.1025ZM1252.63 203.982C1242.09 202.782 1233.67 193.122 1237.19 182.532C1242.53 166.472 1279.92 164.872 1294.13 161.982C1297.07 187.892 1278.93 206.982 1252.63 203.982Z" fill="white"/>
<path d="M852.131 48.9838V105.984C863.831 94.1638 878.871 87.9338 895.581 88.2338C927.621 88.8038 942.621 109.434 946.121 139.494V223.984H917.131V152.484C917.131 147.804 914.121 136.044 912.011 131.604C902.041 110.674 870.961 110.584 860.421 130.764C858.421 134.594 855.131 145.434 855.131 149.474V223.974H826.131V49.4838C826.701 48.4938 827.221 48.5038 828.131 48.2938C829.301 48.0338 852.131 47.7838 852.131 48.9838Z" fill="white"/>
<path d="M517.131 47.9766V77.9766H441.131V120.477L442.631 121.977H503.131V149.477L501.631 150.977H441.131V223.977H412.131V48.9766L517.131 47.9766Z" fill="white"/>
<path d="M226.55 166.06L115.63 0L0.820411 173.17C-1.62959 181.61 1.50041 190.85 8.80041 195.81L115.46 257.8L223.46 194.81C232.45 187.13 233.37 175.57 226.55 166.06ZM110.13 242.98L14.1904 187.42C7.57041 181.81 10.1804 176.39 13.7104 170.06C40.1804 122.66 79.7304 77.04 107.3 29.65L110.13 26.98V242.98ZM218.98 185.33C187.87 203.24 156.58 224.57 124.79 241.14C123.3 241.91 121.95 243.14 120.13 242.98V26.98L221.2 179.46L218.98 185.33Z" fill="white"/>
<path d="M1459.14 127.977L1430.58 132.717C1429.43 132.487 1428.17 126.587 1426.97 124.637C1418.5 110.857 1382.83 108.967 1381.69 126.827C1381.24 133.927 1388.57 137.227 1394.16 139.457C1413.88 147.317 1456 149.777 1459.88 176.737C1463.57 202.367 1450.01 220.367 1425.15 225.487C1392.97 232.117 1355.16 223.117 1348.13 186.557L1378.09 180.997C1378.81 203.727 1427.62 210.497 1430.16 189.497C1431.88 175.327 1421.65 174.537 1410.66 170.947C1394.63 165.707 1364.04 161.167 1355.96 144.647C1349.9 132.257 1351.93 115.647 1360.72 105.057C1384.13 76.8674 1456.22 84.4774 1459.14 127.967V127.977Z" fill="white"/>
<path d="M1192.05 130.898L1163.76 138.058C1152.49 107.418 1111.2 108.518 1102.84 141.178C1097.18 163.298 1102.57 197.898 1130.6 200.008C1147.6 201.288 1157.1 194.568 1163.58 179.238L1191.73 185.918C1189.19 203.838 1173.26 219.258 1156.15 224.478C1112.51 237.788 1073.24 210.848 1070.15 165.458C1067.06 120.068 1095.66 84.4776 1144.62 88.9876C1166.11 90.9676 1189.8 108.618 1192.05 130.898Z" fill="white"/>
<path d="M1526.13 55.9766V91.9766H1564.13V114.977H1526.13V187.477C1526.13 188.977 1530.18 194.737 1531.59 196.017C1539 202.787 1554.98 200.857 1564.13 198.977V223.977C1538.87 228.437 1503.84 228.157 1497.57 197.037C1497.18 195.087 1496.13 188.057 1496.13 186.477V114.977H1472.13V93.4766L1473.63 91.9766H1496.13V55.9766H1526.13Z" fill="white"/>
<path d="M1017.13 55.9766V91.9766H1054.63L1055.91 93.4766C1055.94 93.8866 1055.13 94.2266 1055.13 94.4766V113.477C1055.13 113.777 1056.4 114.247 1056.13 114.977H1017.13V186.477C1017.13 187.297 1020.26 193.447 1021.12 194.487C1027.99 202.887 1045.62 201.237 1055.13 198.977V223.977C1035.45 227.117 1007 228.997 994.291 210.317C981.581 191.637 990.951 142.097 988.181 118.427C988.011 116.967 988.061 115.857 986.631 114.977H964.131V91.9766H988.131V55.9766H1017.13Z" fill="white"/>
<path d="M571.131 44.9766H542.131V223.977H571.131V44.9766Z" fill="white"/>
<path d="M639.131 91.9766H610.131V223.977H639.131V91.9766Z" fill="white"/>
<path d="M639.131 44.9766H610.131V71.9766H639.131V44.9766Z" fill="white"/>
</g>
<defs>
<clipPath id="clip0_1732_1380">
<rect width="1564.13" height="286.07" fill="white"/>
</clipPath>
</defs>
</svg>
