<svg xmlns="http://www.w3.org/2000/svg" width="135.5mm" height="135.5mm" viewBox="0 0 384 384"><path d="M383.4 178C377 86.4 305.4 11.8 214.2 1.3 211.4 1 200.4.8 201.7 0h-19.5c-1.4.7-3.2.5-5 .7C83.2 7.5 7.5 83.2.7 177.3c0 1.2-.7 3.8-.7 5v19.5c.8-1.3 1 9.7 1.3 12.5C11.7 305 85.5 376.2 176.5 383.4c1 0 2.2.3 2.7.7h25.5c.5-.3 1.7-.6 2.7-.6 94.1-7.4 169.4-83.2 176-177.4 0-1.5 0-3.3.6-4.2v-19.5c-.7-.9-.5-2.7-.6-4.3ZM263.5 324c-5.3-15.5-16.3-23.8-31.5-30.4l10.1-8.5c10.3-8.7 12.6-22 8.4-34.3-4.1-12-13.2-20.3-25.5-23.1-12.8-2.9-24.7.6-33.8 10-13.1 13.5-13.4 34.4.5 47.7 3 2.9 6.4 5.3 10.2 8.2-15.5 6.2-31.3 18.2-32.4 36.3-.3 5.1-.4 9.8 0 15.2.4 6.3 5.9 13.2 13.1 13.2l47.1.2c-37 19.6-82.6 7.5-105-27.5-22.2-34.6-14.7-81.7 19.5-107-6.7 15-3.9 30.4 8.2 40.6l8.5 7.1c-21.1 8.7-33.6 22.3-32.8 46.2.3 8.2 3.5 17 12.8 18.3 6.5.9 13.5.4 20.5.4-.8-21.1 9.5-33.5 25.7-44.8-5.5-6-10.4-12.3-12.3-20.2-5.4-22.4 7.7-44.7 30.4-51.2-3.4-6-8.9-9.8-14.4-12.5 28.3-.5 53.6 14 68 35.9 16.1 24.5 17.3 54.6 4.8 80Zm22.3-15.4c8.2-38.9-7.6-77.7-39.5-99.7-32.5-22.4-75.6-22.5-108.3-.3-32.2 21.9-48.2 60.9-39.9 100-21-43.7-8.5-95.9 28.8-125.7 37.8-30.3 91.7-30.5 129.6-.4 37.6 29.8 50.4 82.2 29.2 126.1Zm23.2-17.1c10.8-49-8.4-98-48.6-126-40.9-28.5-95.4-28.6-136.5-.3-40.4 27.8-60 77.1-48.9 126.6-23.8-53-8.2-115.9 37.4-152.1 46.1-36.6 111.4-37 157.9-1 46 35.6 62.8 98.7 38.7 152.7Zm23.2-17.2c13.4-59.2-9.2-118.6-58-152.5-49.2-34.3-115.1-34.3-164.3 0-49 34.2-71.4 93.6-58 152.5-27.2-64.2-6.1-137.7 47.7-178.9 54.6-41.9 130.9-41.8 185.4.3 53.7 41.5 74.3 115 47.3 178.7Zm22.4-15.4c17.5-69.3-9.1-140.1-65.8-180.2-57.8-40.8-135.2-40.9-193.2-.3-57 40-83.8 111-66.2 180.5-30.7-73.1-7.5-158 55.2-206.3 63.2-48.7 151.7-48.8 214.8 0 62.6 48.3 85.8 133.2 55.2 206.3Z" style="fill:#fff"/></svg>