<?xml version="1.0" encoding="UTF-8"?>
<svg version="1.1" xmlns="http://www.w3.org/2000/svg" width="200" height="28">
<path d="M0 0 C2.97 0 5.94 0 9 0 C10.32 4.29 11.64 8.58 13 13 C13.45375 11.783125 13.9075 10.56625 14.375 9.3125 C15.54452941 6.1919073 16.74562438 3.08769384 18 0 C20.97 0 23.94 0 27 0 C27 9.24 27 18.48 27 28 C25.02 28 23.04 28 21 28 C20.67 25.03 20.34 22.06 20 19 C19.01 21.97 18.02 24.94 17 28 C14.69 28 12.38 28 10 28 C9.01 25.03 8.02 22.06 7 19 C6.67 21.97 6.34 24.94 6 28 C4.02 28 2.04 28 0 28 C0 18.76 0 9.52 0 0 Z " fill="#000000" transform="translate(50,0)"/>
<path d="M0 0 C2.31 0 4.62 0 7 0 C8.92409498 2.24838066 10.105419 3.94219177 11.4375 6.5 C11.78748047 7.12003906 12.13746094 7.74007813 12.49804688 8.37890625 C13.35569369 9.9062225 14.18111194 11.45155713 15 13 C15.33 8.71 15.66 4.42 16 0 C18.31 0 20.62 0 23 0 C23 9.24 23 18.48 23 28 C16 28 16 28 13.8203125 25.8828125 C13.26085937 24.97273438 12.70140625 24.06265625 12.125 23.125 C11.26261719 21.76761719 11.26261719 21.76761719 10.3828125 20.3828125 C9.54815747 18.94456513 8.7436672 17.4873344 8 16 C7.67 19.96 7.34 23.92 7 28 C4.69 28 2.38 28 0 28 C0 18.76 0 9.52 0 0 Z " fill="#000000" transform="translate(107,0)"/>
<path d="M0 0 C2.31 0 4.62 0 7 0 C7.33 7.26 7.66 14.52 8 22 C9.65 21.67 11.3 21.34 13 21 C14.14654482 18.70691037 14.19729117 17.20090344 14.31640625 14.6484375 C14.35830078 13.79765625 14.40019531 12.946875 14.44335938 12.0703125 C14.48267578 11.18085938 14.52199219 10.29140625 14.5625 9.375 C14.60568359 8.4778125 14.64886719 7.580625 14.69335938 6.65625 C14.79956861 4.43765717 14.90161194 2.2189512 15 0 C17.31 0 19.62 0 22 0 C22.11654436 3.5622231 22.1873639 7.12395342 22.25 10.6875 C22.30027344 12.19860352 22.30027344 12.19860352 22.3515625 13.74023438 C22.45037546 21.22531572 22.45037546 21.22531572 20.171875 25.14453125 C16.44494252 28.32851133 12.90728622 28.27230247 8.2265625 28.2265625 C5.21163618 27.91978052 3.33497319 26.89716572 1 25 C-0.27861615 22.44276771 -0.11336609 20.63262898 -0.09765625 17.7734375 C-0.09443359 16.7421875 -0.09121094 15.7109375 -0.08789062 14.6484375 C-0.07951172 13.56820313 -0.07113281 12.48796875 -0.0625 11.375 C-0.05798828 10.28703125 -0.05347656 9.1990625 -0.04882812 8.078125 C-0.03701776 5.38536211 -0.02054778 2.69270812 0 0 Z " fill="#000000" transform="translate(1,0)"/>
<path d="M0 0 C2.05078125 0.03255208 4.1015625 0.06510417 6.15234375 0.09765625 C7.65733384 4.38758958 9.15549012 8.67987783 10.65234375 12.97265625 C11.08160156 14.19597656 11.51085937 15.41929688 11.953125 16.6796875 C12.35917969 17.84628906 12.76523438 19.01289063 13.18359375 20.21484375 C13.56064453 21.29362793 13.93769531 22.37241211 14.32617188 23.48388672 C15.15234375 26.09765625 15.15234375 26.09765625 15.15234375 28.09765625 C12.51234375 28.09765625 9.87234375 28.09765625 7.15234375 28.09765625 C6.82234375 26.11765625 6.49234375 24.13765625 6.15234375 22.09765625 C3.18234375 22.09765625 0.21234375 22.09765625 -2.84765625 22.09765625 C-3.17765625 24.07765625 -3.50765625 26.05765625 -3.84765625 28.09765625 C-6.15765625 28.09765625 -8.46765625 28.09765625 -10.84765625 28.09765625 C-10.24112306 21.94808367 -8.43658296 16.51963759 -6.34765625 10.72265625 C-5.86619141 9.35173828 -5.86619141 9.35173828 -5.375 7.953125 C-2.5994271 0.13739044 -2.5994271 0.13739044 0 0 Z M1.15234375 9.09765625 C0.49234375 11.73765625 -0.16765625 14.37765625 -0.84765625 17.09765625 C0.80234375 17.09765625 2.45234375 17.09765625 4.15234375 17.09765625 C3.49234375 14.45765625 2.83234375 11.81765625 2.15234375 9.09765625 C1.82234375 9.09765625 1.49234375 9.09765625 1.15234375 9.09765625 Z " fill="#000000" transform="translate(89.84765625,-0.09765625)"/>
<path d="M0 0 C6.93 0 13.86 0 21 0 C21 6.34368343 19.92832443 8.16646835 16.125 12.6875 C15.21042359 13.81598995 14.29634362 14.94488245 13.3828125 16.07421875 C12.59648438 17.03972656 11.81015625 18.00523438 11 19 C10.34 19.99 9.68 20.98 9 22 C13.29 22 17.58 22 22 22 C22 23.98 22 25.96 22 28 C14.41 28 6.82 28 -1 28 C-1 21.65631657 0.07167557 19.83353165 3.875 15.3125 C4.78957641 14.18401005 5.70365638 13.05511755 6.6171875 11.92578125 C7.40351562 10.96027344 8.18984375 9.99476562 9 9 C9.66 8.01 10.32 7.02 11 6 C7.37 5.67 3.74 5.34 0 5 C0 3.35 0 1.7 0 0 Z " fill="#000000" transform="translate(26,0)"/>
<path d="M0 0 C6.93 0 13.86 0 21 0 C21 6.34368343 19.92832443 8.16646835 16.125 12.6875 C15.21042359 13.81598995 14.29634362 14.94488245 13.3828125 16.07421875 C12.59648437 17.03972656 11.81015625 18.00523438 11 19 C10.34 19.99 9.68 20.98 9 22 C12.96 22 16.92 22 21 22 C21 23.98 21 25.96 21 28 C13.74 28 6.48 28 -1 28 C-1 21.65631657 0.07167557 19.83353165 3.875 15.3125 C4.78957641 14.18401005 5.70365638 13.05511755 6.6171875 11.92578125 C7.40351563 10.96027344 8.18984375 9.99476562 9 9 C9.66 8.01 10.32 7.02 11 6 C7.37 5.67 3.74 5.34 0 5 C0 3.35 0 1.7 0 0 Z " fill="#000000" transform="translate(179,0)"/>
<path d="M0 0 C2.64 0 5.28 0 8 0 C9.32 2.64 10.64 5.28 12 8 C12.66 6.68 13.32 5.36 14 4 C15.125 1.75 15.125 1.75 17 0 C19.75345792 -0.34895308 22.20663916 -0.1831712 25 0 C24.43410156 1.01578125 23.86820313 2.0315625 23.28515625 3.078125 C18.79654274 11.40600467 15.70588206 18.29410782 16 28 C13.69 28 11.38 28 9 28 C9.020625 27.37996094 9.04125 26.75992187 9.0625 26.12109375 C8.86870504 17.80002273 5.78423142 12.10916955 1.71484375 5.08984375 C0 2 0 2 0 0 Z " fill="#000000" transform="translate(142,0)"/>
<path d="M0 0 C2.31 0 4.62 0 7 0 C7 9.24 7 18.48 7 28 C4.69 28 2.38 28 0 28 C0 18.76 0 9.52 0 0 Z " fill="#000000" transform="translate(169,0)"/>
<path d="M0 0 C2.31 0 4.62 0 7 0 C7 9.24 7 18.48 7 28 C4.69 28 2.38 28 0 28 C0 18.76 0 9.52 0 0 Z " fill="#000000" transform="translate(134,0)"/>
</svg>
